<svg width="40" height="36" viewBox="0 0 40 36" fill="none" xmlns="http://www.w3.org/2000/svg">
<path d="M2.84312 10.6862H2.84082C4.4522 8.38619 6.65933 6.54198 9.23847 5.3405C15.3349 2.48851 22.3363 3.6543 27.0955 7.76209L20.1175 13.1436C17.0286 8.93281 10.3417 6.71096 2.84312 10.6862Z" fill="url(#paint0_linear_104_30798)"/>
<path d="M30.9703 12.7714C30.6369 25.6408 18.0623 29.4409 12.3223 23.2461C12.9599 23.9107 13.7628 24.4039 14.6533 24.678C15.5439 24.9522 16.4919 24.998 17.406 24.811C18.32 24.624 19.169 24.2105 19.871 23.6105C20.573 23.0106 21.1042 22.2444 21.4133 21.3861C21.4281 21.3449 21.4437 21.3037 21.4566 21.2625C21.727 20.4795 21.8818 19.6631 21.9164 18.8377C21.9483 18.0343 21.8673 17.2304 21.6755 16.4484C21.547 15.9254 21.3716 15.4143 21.1512 14.9212L28.5638 9.20557C28.9023 9.58401 29.2246 9.98037 29.5272 10.3942C29.9331 10.9455 30.3017 11.5219 30.6309 12.1198C30.7483 12.3318 30.8611 12.5477 30.9693 12.7674C30.9693 12.7674 30.9703 12.771 30.9703 12.7714Z" fill="url(#paint1_linear_104_30798)"/>
<path style="mix-blend-mode:hard-light" opacity="0.6" d="M29.5274 10.3942C29.2248 9.98037 28.9024 9.58401 28.5639 9.20557L21.1514 14.9212C21.3717 15.4143 21.5471 15.9254 21.6756 16.4484C21.7745 16.8535 21.8442 17.2649 21.8839 17.6796L30.3505 11.6334C30.0942 11.2053 29.8198 10.7922 29.5274 10.3942Z" fill="url(#paint2_linear_104_30798)"/>
<path d="M23.3416 33.9299C20.767 35.1391 17.91 35.6644 15.0599 35.4526V35.4499C3.77572 28.7351 6.68482 16.2223 15.0668 14.4801C14.6773 14.5674 14.2991 14.6969 13.9392 14.8662C12.6413 15.474 11.6443 16.5589 11.1673 17.8823C10.6904 19.2058 10.7725 20.6595 11.3957 21.924C11.6228 22.3865 11.9186 22.8139 12.2736 23.1924L12.3223 23.2448C18.0619 29.4387 30.6364 25.6409 30.9703 12.772C34.8644 20.6714 31.4532 30.1338 23.3416 33.9299Z" fill="url(#paint3_linear_104_30798)"/>
<path d="M20.1169 13.1434L18.144 14.6661C17.1775 14.3239 16.131 14.256 15.1264 14.4704L15.0671 14.4829C6.68465 16.2251 3.77601 28.7379 15.0597 35.4527V35.4554C9.4535 35.0389 4.22529 31.8004 1.61234 26.5045C-1.00062 21.2085 -0.328751 15.2089 2.84064 10.6868H2.84294C10.341 6.71072 17.0279 8.93257 20.1169 13.1434Z" fill="url(#paint4_linear_104_30798)"/>
<path d="M36.9268 7.4253L39.9996 5.03819L36.656 3.92301L36.2835 0.5L33.2102 2.88666L33.0851 5.7176L18.1763 17.2142C17.57 16.7656 16.8165 16.5477 16.057 16.6016C15.2976 16.6555 14.5844 16.9775 14.0514 17.507C13.5183 18.0365 13.2019 18.7373 13.1616 19.4778C13.1213 20.2183 13.3598 20.9478 13.8324 21.5292C14.305 22.1107 14.9792 22.5042 15.7285 22.636C16.4778 22.7678 17.2508 22.6288 17.9024 22.2451C18.554 21.8614 19.0394 21.2593 19.2676 20.5518C19.4959 19.8444 19.4512 19.0801 19.142 18.4024L34.0462 6.91115L36.9268 7.4253Z" fill="url(#paint5_linear_104_30798)"/>
<path style="mix-blend-mode:hard-light" opacity="0.6" d="M2.84277 10.6863C12.7198 9.09904 16.9813 12.772 18.1429 14.6646L20.1158 13.1419C17.0282 8.93289 10.3413 6.71104 2.84277 10.6863Z" fill="url(#paint6_linear_104_30798)"/>
<path style="mix-blend-mode:overlay" d="M10.9388 20.5419C10.7025 19.2256 10.9873 17.871 11.7358 16.7511C12.4842 15.6311 13.6407 14.8291 14.9722 14.5065L14.9745 14.5029C6.66524 16.3154 3.81684 28.753 15.0444 35.445C8.41641 30.4656 9.17932 21.5411 10.9388 20.5419Z" fill="url(#paint7_linear_104_30798)"/>
<path style="mix-blend-mode:hard-light" opacity="0.6" d="M30.9703 12.7737C29.7392 19.4827 23.8382 24.1359 18.3074 24.5444C17.2915 24.9398 16.1766 25.0274 15.1088 24.7957C14.0409 24.5639 13.0697 24.0237 12.3223 23.2456C18.0614 29.4386 30.635 25.6408 30.9703 12.7737Z" fill="url(#paint8_linear_104_30798)"/>
<path style="mix-blend-mode:overlay" d="M9.23839 5.3405C7.50147 6.15123 5.92619 7.25595 4.58594 8.60318C11.9957 4.15367 19.5743 7.22601 23.8377 10.2742L27.0954 7.76209C22.3363 3.6543 15.3348 2.48851 9.23839 5.3405Z" fill="url(#paint9_linear_104_30798)"/>
<path style="mix-blend-mode:overlay" d="M2.84045 10.6853C-0.328946 15.2087 -1.00035 21.206 1.61214 26.5029C4.22464 31.7997 9.45331 35.0369 15.0586 35.4538C15.0586 35.4538 15.0586 35.4538 15.0586 35.4507L15.0457 35.4431C-1.97802 29.6155 4.45595 10.2732 13.2734 8.87411C8.14131 7.6389 2.84045 10.6853 2.84045 10.6853Z" fill="url(#paint10_linear_104_30798)"/>
<path style="mix-blend-mode:overlay" d="M30.9699 12.7929C34.2888 30.0499 13.8855 34.2952 8.23145 27.5621C9.18705 30.4257 11.3608 33.2499 15.06 35.4512V35.4538C17.9101 35.6656 20.7671 35.1403 23.3417 33.9311C31.4533 30.135 34.8645 20.6744 30.9704 12.7732C30.9699 12.7781 30.9699 12.7857 30.9699 12.7929Z" fill="url(#paint11_linear_104_30798)"/>
<path d="M15.0656 14.48C14.3331 14.6685 13.6244 14.909 12.9502 15.2525C12.1395 15.6672 11.3976 16.1986 10.7498 16.829C9.40974 18.1314 8.50013 19.81 8.07797 21.6023C7.72537 23.1237 7.70719 24.7005 8.02463 26.2292C8.3985 28.0533 9.22855 29.7731 10.3653 31.2636C10.9359 32.0063 11.5715 32.6993 12.265 33.335C12.9466 33.962 13.6846 34.5236 14.4499 35.0516C14.6494 35.1896 14.855 35.3204 15.0583 35.4547C14.35 35.0528 13.6674 34.6095 13.0142 34.1273C12.2922 33.5872 11.618 32.9891 10.9986 32.3394C9.71417 30.9846 8.70293 29.3884 8.10142 27.6368C7.57672 26.1096 7.36564 24.4427 7.56568 22.8402C7.66758 21.9728 7.87537 21.1203 8.18466 20.3008C8.52016 19.4281 8.98092 18.606 9.55322 17.8591C10.6569 16.4215 12.2053 15.3063 13.9638 14.7572C14.3258 14.6458 14.6936 14.5533 15.0656 14.48Z" fill="url(#paint12_radial_104_30798)"/>
<path d="M12.3213 23.246C12.8869 23.7906 13.4903 24.2881 14.1713 24.6912C14.9602 25.1627 15.8204 25.5104 16.7204 25.7213C17.1896 25.8307 17.6659 25.9096 18.1459 25.9573C18.6383 26.0007 19.1332 26.0089 19.6267 25.982C20.6012 25.9285 21.5632 25.7424 22.4848 25.4293C23.206 25.1881 23.8988 24.8729 24.5514 24.4888C25.3838 23.9993 26.1747 23.4139 26.8507 22.7309C27.1795 22.3986 27.4982 22.0591 27.7948 21.6959C28.0872 21.3479 28.3541 20.9804 28.5936 20.596C28.7187 20.39 28.8433 20.1836 28.9675 19.977C29.093 19.7674 29.1974 19.5448 29.3129 19.329C29.5263 18.9119 29.7138 18.4826 29.8743 18.0436C29.9571 17.8241 30.039 17.606 30.1121 17.3835C30.1852 17.1609 30.2551 16.9266 30.3264 16.6982C30.4395 16.241 30.5536 15.7864 30.6428 15.3242C30.7292 14.8763 30.7932 14.4285 30.8552 13.9766C30.909 13.5865 30.9311 13.1906 30.9651 12.7982L30.9679 12.77C30.961 13.1216 30.9633 13.475 30.9458 13.8261C30.9242 14.2708 30.8819 14.7187 30.8189 15.1589C30.6865 16.0802 30.5071 16.9978 30.2059 17.8828C30.1282 18.1117 30.0555 18.3437 29.9649 18.5685C29.8743 18.7933 29.781 19.0047 29.6918 19.2233C29.5038 19.6569 29.2866 20.0779 29.0415 20.4836C28.6645 21.1373 28.2244 21.7545 27.7272 22.327C27.0986 23.0435 26.3936 23.7207 25.5967 24.2622C24.9805 24.6814 24.3417 25.0616 23.6547 25.3617C22.7522 25.7625 21.7975 26.041 20.8173 26.1893C19.8527 26.328 18.8731 26.3355 17.9064 26.2117C16.134 25.9748 14.4312 25.2264 13.1109 24.0441C12.8339 23.7913 12.5703 23.525 12.3213 23.246Z" fill="url(#paint13_radial_104_30798)"/>
<path d="M20.1177 13.1434C19.5714 12.4873 18.9832 11.8755 18.3063 11.3439C17.5719 10.7647 16.768 10.2744 15.9123 9.88383C15.0406 9.49108 14.1257 9.19686 13.1853 9.00692C12.8702 8.94242 12.5506 8.88779 12.2306 8.85375C11.8585 8.81478 11.4842 8.76865 11.1099 8.76418C10.6266 8.75522 10.1442 8.75253 9.66223 8.78388C9.18029 8.81523 8.68869 8.87345 8.20583 8.94825C7.26221 9.10157 6.33342 9.33153 5.42917 9.63572C4.54301 9.93175 3.69134 10.2986 2.84473 10.6882L3.50969 10.3214C3.90287 10.1042 4.3186 9.9219 4.73063 9.73917C5.58652 9.3647 6.47637 9.06873 7.38866 8.85509C8.32819 8.63616 9.28741 8.50701 10.2527 8.46948C10.7435 8.45423 11.2348 8.46545 11.7243 8.50307C11.9542 8.51964 12.1929 8.54114 12.4223 8.57786C13.3356 8.72297 14.2287 8.92406 15.0896 9.25369C15.9721 9.59027 16.8077 10.0337 17.5765 10.5735C18.1017 10.9421 18.5896 11.3587 19.0334 11.8177C19.4285 12.2324 19.791 12.6756 20.1177 13.1434Z" fill="url(#paint14_radial_104_30798)"/>
<defs>
<linearGradient id="paint0_linear_104_30798" x1="9.01589" y1="-1.37699" x2="22.8213" y2="24.5473" gradientUnits="userSpaceOnUse">
<stop stop-color="#F77CFE"/>
<stop offset="0.12" stop-color="#DC69F1"/>
<stop offset="0.43" stop-color="#9E3DD1"/>
<stop offset="0.69" stop-color="#701DBA"/>
<stop offset="0.89" stop-color="#5409AB"/>
<stop offset="1" stop-color="#4902A6"/>
</linearGradient>
<linearGradient id="paint1_linear_104_30798" x1="10.3697" y1="-2.09803" x2="24.1751" y2="23.8262" gradientUnits="userSpaceOnUse">
<stop stop-color="#F77CFE"/>
<stop offset="1" stop-color="#4902A6"/>
</linearGradient>
<linearGradient id="paint2_linear_104_30798" x1="24.2233" y1="11.7772" x2="28.1333" y2="18.0129" gradientUnits="userSpaceOnUse">
<stop stop-color="#231F20"/>
<stop offset="1" stop-color="#231F20"/>
</linearGradient>
<linearGradient id="paint3_linear_104_30798" x1="39.4585" y1="25.1616" x2="8.50433" y2="23.0812" gradientUnits="userSpaceOnUse">
<stop stop-color="#1ECCFE"/>
<stop offset="1" stop-color="#0529A4"/>
</linearGradient>
<linearGradient id="paint4_linear_104_30798" x1="0.221247" y1="34.7397" x2="13.5515" y2="15.9482" gradientUnits="userSpaceOnUse">
<stop offset="0.17" stop-color="#F6B41D"/>
<stop offset="1" stop-color="#EE4035"/>
</linearGradient>
<linearGradient id="paint5_linear_104_30798" x1="16.6201" y1="19.8163" x2="44.1598" y2="-4.03784" gradientUnits="userSpaceOnUse">
<stop stop-color="#EB4B49"/>
<stop offset="0.19" stop-color="#D8343C"/>
<stop offset="0.38" stop-color="#C1172C"/>
<stop offset="0.5" stop-color="#BC162A"/>
<stop offset="0.64" stop-color="#AE1223"/>
<stop offset="0.79" stop-color="#960B17"/>
<stop offset="0.95" stop-color="#750308"/>
<stop offset="0.99" stop-color="#6B0003"/>
</linearGradient>
<linearGradient id="paint6_linear_104_30798" x1="14.6277" y1="-4.71528" x2="10.5649" y2="17.911" gradientUnits="userSpaceOnUse">
<stop stop-color="#231F20"/>
<stop offset="1" stop-color="#231F20"/>
</linearGradient>
<linearGradient id="paint7_linear_104_30798" x1="-0.16652" y1="29.0773" x2="18.191" y2="23.8352" gradientUnits="userSpaceOnUse">
<stop stop-color="#231F20"/>
<stop offset="1" stop-color="#231F20"/>
</linearGradient>
<linearGradient id="paint8_linear_104_30798" x1="30.1899" y1="33.8125" x2="21.1578" y2="16.1999" gradientUnits="userSpaceOnUse">
<stop stop-color="#231F20"/>
<stop offset="1" stop-color="#231F20"/>
</linearGradient>
<linearGradient id="paint9_linear_104_30798" x1="17.063" y1="-8.66908" x2="15.4649" y2="14.5558" gradientUnits="userSpaceOnUse">
<stop stop-color="#F1F2F2"/>
<stop offset="1" stop-color="#F1F2F2"/>
</linearGradient>
<linearGradient id="paint10_linear_104_30798" x1="-20.431" y1="30.0593" x2="18.1424" y2="19.9807" gradientUnits="userSpaceOnUse">
<stop stop-color="#F1F2F2"/>
<stop offset="1" stop-color="#F1F2F2"/>
</linearGradient>
<linearGradient id="paint11_linear_104_30798" x1="45.349" y1="31.561" x2="10.7327" y2="19.3898" gradientUnits="userSpaceOnUse">
<stop stop-color="#F1F2F2"/>
<stop offset="1" stop-color="#F1F2F2"/>
</linearGradient>
<radialGradient id="paint12_radial_104_30798" cx="0" cy="0" r="1" gradientUnits="userSpaceOnUse" gradientTransform="translate(10.0264 28.7731) scale(28.6537 27.9059)">
<stop stop-color="#F8FA84"/>
<stop offset="1" stop-color="#F05F2F"/>
</radialGradient>
<radialGradient id="paint13_radial_104_30798" cx="0" cy="0" r="1" gradientUnits="userSpaceOnUse" gradientTransform="translate(28.7987 20.1835) scale(24.9822 24.3301)">
<stop stop-color="#A9EDF4"/>
<stop offset="1" stop-color="#0F67C6"/>
</radialGradient>
<radialGradient id="paint14_radial_104_30798" cx="0" cy="0" r="1" gradientUnits="userSpaceOnUse" gradientTransform="translate(6.29372 8.51382) scale(25.2889 24.6288)">
<stop stop-color="#F5B6E2"/>
<stop offset="0.16" stop-color="#F2B2E1"/>
<stop offset="0.34" stop-color="#E8A5DF"/>
<stop offset="0.52" stop-color="#D78FDB"/>
<stop offset="0.71" stop-color="#BF71D5"/>
<stop offset="0.9" stop-color="#A24BCE"/>
<stop offset="1" stop-color="#8F33C9"/>
</radialGradient>
</defs>
</svg>
